<svg xmlns="http://www.w3.org/2000/svg" viewBox="0 0 1000 1000"><defs><style>.cls-1{fill:#fff;}</style></defs><title>logo_imie_formation</title><g id="Calque_1" data-name="Calque 1"><rect width="1000" height="1000"/></g><g id="Calque_2" data-name="Calque 2"><path class="cls-1" d="M249.72,811.33v16.85l-23.33,12.72,23.29,12.81,0,16.71-41.15-22.51V833.8Z"/><path class="cls-1" d="M278.53,851.46V873H261.24v-66.5h41.42v15.2H278.53v14.54h21.38v15.2Z"/><path class="cls-1" d="M311.68,839.87c0-46,68.21-46,68.21,0S311.68,885.95,311.68,839.87Zm50.83,0c0-23.94-33.35-23.94-33.35,0C329.16,864,362.51,864,362.51,839.87Z"/><path class="cls-1" d="M448.87,870.56V873h-19l-11.4-19.57h-8.84V873h-17v-66.5h29.17c26.13.09,30.88,31.54,14.06,42.94Zm-27.08-48.83c-4-.09-8.17,0-12.16,0v16.44h12.16C431,838.16,431.48,821.82,421.79,821.73Z"/><path class="cls-1" d="M517.83,806.34h6.08V873H506.53V843.39l-14.16,14.82h-1.9l-14.06-14.82V873H459V806.34h6.27l26,28.88Z"/><path class="cls-1" d="M579.2,864.67H553l-3.9,8.36H532.46v-2.47l29.92-64.89h7.32l30,64.89V873H583.1ZM566,832.56,558.59,850h15Z"/><path class="cls-1" d="M598.2,821.73v-15.2h49.4v15.2H631.36V873H614.54v-51.3Z"/><path class="cls-1" d="M687.79,858.11V873H654.06V858.11h8.46V821.35h-7.79V806.53h32.4v14.82h-7.79v36.77Z"/><path class="cls-1" d="M694.82,839.87c0-46,68.21-46,68.21,0S694.82,885.95,694.82,839.87Zm50.83,0c0-23.94-33.34-23.94-33.34,0C712.3,864,745.64,864,745.64,839.87Z"/><path class="cls-1" d="M793.43,840.35V873H775.85V806.24H782l33.63,32.87V806.53H833v66.6H827Z"/><path class="cls-1" d="M828.83,894.74l9.61-17.58L865,827.62l9.47-17.91q3.8.09,5.37.09,1.94,0,5.37-.09l-38.5,72.78q-2.13,4-6.22,12.25-4.08-.09-5.47-.09Z"/><path class="cls-1" d="M886.77,870.43v-16.8l23.29-12.77L886.77,828l-.09-16.71,41.15,22.51V848Z"/></g><g id="Calque_4" data-name="Calque 4"><path class="cls-1" d="M843,740.33c-3.17-1.33-2-8.68,0-8.77l79.62-.7s7.22-31.7,7.24-44.36c0-21.94-14.36-32-40.61-32H856.11a42.72,42.72,0,0,0-31.56,13.94q4.19,4.32,8.32,8.62c1.67.66,3.44-2.91,5.15-3.94,2.8,2.92,5.63,5.84,8.44,8.78,1.68.63,3.44-3,5.14-4l4.48,4.64c1.56-1.48,3.09-3,4.65-4.47.63-1.68-2.93-3.44-4-5.15,1.53-1.5,3.09-3,4.62-4.47.67-1.67-2.91-3.43-3.94-5.13,1.21-1.17,2.4-2.33,3.61-3.49L910.28,711l-3.62,3.5-4.47-4.65c-1.72,1.65-3.44,3.3-5.15,5q-2.25-2.31-4.47-4.65l-4.65,4.48L883.44,710c-1.67-.63-3.42,2.94-5.13,4l-4-4.13c-1.68-.62-3.45,2.92-5.16,4l-4-4.13c-1.68-.65-3.43,2.91-5.15,4l-4-4.14c-1.68-.64-3.43,3-5.14,4-1.5-1.52-3-3.09-4.49-4.64l-4.64,4.49-4-4.13,13.92-13.43q-4.74-4.9-9.44-9.8c-1.68-.66-3.44,2.92-5.17,4-2.8-2.94-5.61-5.84-8.44-8.77-1.66-.65-3.44,2.93-5.14,4-2-2.1-4-4.18-6-6.25a42.47,42.47,0,0,0-4.3,18.58V730.7a42.86,42.86,0,0,0,42.83,42.83h67.16V742.16s-75.15.29-80.25-1.83Zm-74.79-85.8h37.59V632.09H768.24Zm0,119h37V659.59h-37V773.53Zm-50.89-119H688c-8.9,0-19.39,5.85-24.24,13.33-5.05-7.48-15.35-13.33-24.45-13.33H610.25a43,43,0,0,0-43,42.84v76.17h37V697.36a6,6,0,0,1,6.06-5.87h29.09a5.86,5.86,0,0,1,5.86,5.87v76.17h37V697.36a5.86,5.86,0,0,1,5.85-5.87h29.3a5.86,5.86,0,0,1,5.85,5.87v76.17h37V697.36a42.85,42.85,0,0,0-42.83-42.84Zm-195.16,0h37.57V632.09H522.17Zm0,119h37V659.59h-37V773.53Z"/></g><g id="Calque_5" data-name="Calque 5"><g id="Calque_3" data-name="Calque 3"><path class="cls-1" d="M409.9,115.47c29.52,7.38,22.44,21.26,23,37.8s32.18,97.44,32.18,97.44L498.49,264l-10-17.42s28.64,9.74,57.87,14.77,80.32,17.12,115.45,48.42,15.35,54.92,15.35,54.92l25.25,22.74c1.77,5,.74,7.38.74,7.38-7.53,17.57-24.36,27.75-24.36,27.75-15.06-63.86-118.26-41.19-118.26-41.19l26,40.15-2.81,8.86c47.39,49.31,53.15,45,59.64,45.33s5-31.45,5-31.45c2.06-5.76.15-8.57.15-8.57-.44-1.33,2.51-6.79,3.84-5.31s8,2.66,8,2.66a8.29,8.29,0,0,1,6.79-1l11.37,5.91.15,8.26c-2.95-5.76-9.89-6.2-9.89-6.2-6.49,2.51-7.82,34.7-7.82,34.7,5.16,1,21.55-18.89,22.59-20.82s1.33-5.76,1.33-5.76,26.13,6.49,26.42,15.21a31.06,31.06,0,0,1-4.14,15.79c.89-7.82-3.69-10.19-5.47-11.67s-4.43-.44-4.43-.44l-30.12,18.75c-.89.74-.29,2.21-.29,2.21l36.17-2.06.29,2.37a12.64,12.64,0,0,0,4.14,4.58c2.66,2.95,2.66,12.69,2.66,12.69l-8.86,7.38C703.68,511.43,705,503,705,503h0l-2-1.91c-2.06-1.92-4.14.44-4.14.44l-3.69.15-.66,1.84-41.4.22-12.62,26.8h-7.53l-5.54,10.85c2.21-.44,8.42,2.21,8.42,2.21l-16.17,1.55,3.76-10.41c1.33-2.88.66-6.87.66-6.87l-.89-9.74L638.67,490c-2.66-3.32-5.54-2.88-5.54-2.88v3.32c-38.31-8-75.74-29.9-75.74-29.9-3.32-.89-4,1.33-4,1.33L553,480.5l16.39,18.16,21.26-16.83a14.78,14.78,0,0,1,6.64,0l19.93,19.93c-2.21,8.19-9.3,16.17-9.3,16.17a10.63,10.63,0,0,0-.22-8.86l-4.65-.22-.44-5.09c-.66-2-4-1.11-4-1.11l-17.27,18.82,12.4-.89a9.74,9.74,0,0,1,2.66,1.33l-.22,4.43,13.73.22c1.11,0,2.88,1.55,2.88,1.55-.89,24.14-6.87,19.27-6.87,19.27a20.07,20.07,0,0,0,0-12.62l-5.76.44c-.22,2.21-4.43,5.54-4.43,5.54s-10.19-3.32-18.82-3.54-12.18,2-12.18,2c-.89,3.76-12.84,22.15-12.84,22.15l-4.43,29.23-5.31.44.22,6.87c5.54,2.21,12.62,0,12.62,0-12,10-20.37,9.74-20.37,9.74l.89-14.62-2.88-1.11-1.77-56.25L541.45,525c1.77-1.55,1.77-4.65,1.77-4.65-24.36-26.57-33.66-25-33.66-25-42.3-6.2-41.19-10.19-41.19-10.19,26.13.89,27.68-7.53,27.68-7.53h-8.19c-63.34-42.52-170.52-43.85-170.52-43.85L260.2,454.15,203.5,417.39c42.08-7.53,40.31-12.84,40.31-12.84L175.6,401l-66.44-55.36h77.07l-4-5.76,12.84,5.76h31.45L145.93,304c16.39,6.2,89.47,16.39,89.47,16.39-43-19.49-89.18-52.26-89.18-52.26C227.71,287,262,274.62,262,274.62c-150-49-154.73-65.55-154.73-65.55,81.5,12.4,138.78,0,138.78,0C94.26,183.67,70,130.52,70,130.52c63.17,15.94,90.35,10.63,90.35,10.63-68.5-23-109.84-73.82-109.84-73.82,121.07,39,220.28,49,220.28,49l-76.77-39,99.21,22.44L181.65,40.76S380.38,108.08,409.9,115.47Z"/></g><g id="Calque_4-2" data-name="Calque 4"><path d="M220.34,223.61l120.47-6.42s3.76-.22-1.55-3.54-213.93-60.24-213.93-60.24l9.74-2.88,186,30.78s2.88-.89,0-2.88-185.8-73.52-185.8-73.52l-8-8.86s32.55,11.07,55.81,17.05,180.93,37.65,180.93,37.65,8.42,4,8.64,9.08,0,36.54,0,36.54,14.17,54.48,125.79,147c0,0-1.18,2.06-2.66,2.06,0,0-108.07-83.56-118.7-94.49Z"/></g><g id="Calque_5-2" data-name="Calque 5"><path d="M640.78,336.67s12,18.05,12.3,19.71a5,5,0,0,1,0,2.55h-10.3Z"/></g><g id="Calque_6" data-name="Calque 6"><path d="M671,367.34l24.8,22.37a13.29,13.29,0,0,1,0,8c-1.33,4.65-9.74,11.07-9.74,11.07s-23.92-26.13-31.67-27.68-18.82-13.73-18.82-13.73Z"/></g><g id="Calque_7" data-name="Calque 7"><path d="M551,294.26s-13.29-3.54-18.6-3.54L514.65,269S690.71,285.84,673,359.07H662.48v-3s-1.77-3.32-3.21-3.32c0,0,4.77-5.86,5.43-7.64s-18.5-43.52-122.81-61.68Z"/></g></g></svg>